<?xml version="1.0" encoding="UTF-8" standalone="no"?><!DOCTYPE svg PUBLIC "-//W3C//DTD SVG 1.1//EN" "http://www.w3.org/Graphics/SVG/1.1/DTD/svg11.dtd"><svg width="100%" height="100%" viewBox="0 0 294 399" version="1.1" xmlns="http://www.w3.org/2000/svg" xmlns:xlink="http://www.w3.org/1999/xlink" xml:space="preserve" xmlns:serif="http://www.serif.com/" style="fill-rule:evenodd;clip-rule:evenodd;stroke-linecap:round;stroke-linejoin:round;stroke-miterlimit:1.5;"><path d="M117.039,213.037c-24.23,14.793 -101.433,54.01 -91.506,79.805c8.676,22.542 81.107,2.053 105.061,24.207c21.469,19.855 -21.471,69.467 24.42,65.706c10.69,-0.876 21.868,-6.014 31.234,-10.951c34.949,-18.421 56.799,-37.559 68.148,-77.233c3.785,-13.233 5.629,-25.311 -1.704,-37.464c-21.882,-36.269 -59.15,-13.535 -91.999,-19.597c-14.647,-2.703 17.782,-22.687 10.222,-33.43c-8.019,-11.394 -38.282,-0.564 -53.876,8.957Z" style="fill:url(#_Linear1);"/><g><clipPath id="_clip2"><path d="M286.707,43.582l-125.883,193.066l-28.296,-0.014l-125.701,-193.185"/></clipPath><g clip-path="url(#_clip2)"><g><path d="M286.707,43.582l-125.883,193.066l-28.296,-0.014l-125.701,-193.185" style="fill:none;"/><clipPath id="_clip3"><path d="M286.707,43.582l-125.883,193.066l-28.296,-0.014l-125.701,-193.185"/></clipPath><g clip-path="url(#_clip3)"><g transform="matrix(-1,-0.000188048,0.000188048,-1,381.187,259.778)"><g transform="matrix(-0.994793,-0.101911,0.101911,-0.994793,595.457,280.103)"><text x="304.884px" y="124.841px" style="font-family:'Futura-Medium', 'Futura', sans-serif;font-weight:500;font-size:60px;">H</text></g><g transform="matrix(-0.999223,-0.0394228,0.0394228,-0.999223,517.017,251.765)"><text x="260.991px" y="120.785px" style="font-family:'Futura-Medium', 'Futura', sans-serif;font-weight:500;font-size:60px;">J</text></g><g transform="matrix(-0.999787,0.020635,-0.020635,-0.999787,475.319,234.588)"><text x="236.449px" y="119.746px" style="font-family:'Futura-Medium', 'Futura', sans-serif;font-weight:500;font-size:60px;">P</text></g><g transform="matrix(-0.996233,0.0867184,-0.0867184,-0.996233,417.674,222.245)"><text x="204.01px" y="120.194px" style="font-family:'Futura-Medium', 'Futura', sans-serif;font-weight:500;font-size:60px;">R</text></g></g></g></g></g><path d="M286.707,43.582l-125.883,193.066l-28.296,-0.014l-125.701,-193.185" style="fill:none;stroke:#000;stroke-width:13.41px;"/><ellipse cx="146.707" cy="41.707" rx="140" ry="35" style="fill:none;stroke:#000;stroke-width:13.41px;"/><path d="M159.345,236.648l-25.683,0l0,155.023l23.045,-29.525l2.638,-125.498Z" style="fill:none;stroke:#000;stroke-width:13.41px;"/></g><defs><linearGradient id="_Linear1" x1="0" y1="0" x2="1" y2="0.0091606" gradientUnits="userSpaceOnUse" gradientTransform="matrix(172.765,-61.6351,60.729,175.343,34.7111,333.194)"><stop offset="0" style="stop-color:#69bac9;stop-opacity:0.6"/><stop offset="0.35" style="stop-color:#71a9c9;stop-opacity:0.6"/><stop offset="0.68" style="stop-color:#8973cb;stop-opacity:0.6"/><stop offset="0.74" style="stop-color:#8277cb;stop-opacity:0.6"/><stop offset="0.8" style="stop-color:#7b7bcb;stop-opacity:0.6"/><stop offset="1" style="stop-color:#787dcb;stop-opacity:0.6"/></linearGradient></defs></svg>